<svg xmlns="http://www.w3.org/2000/svg" xmlns:ns2="http://design.blush" xmlns:xlink="http://www.w3.org/1999/xlink" width="264px" height="280px" viewBox="0 0 264 280" version="1.1">
    <title id="circle_Title">Avataaar/Circle</title>
    <desc>Created with python_avatars</desc>
    <defs>
        <circle id="circle_path-1" cx="120" cy="120" r="120" />
        <path d="M-3.19744231e-14,160 L-3.19744231e-14,-1.42108547e-14 L264,-1.42108547e-14 L264,160 L252,160 C252,226.27417 198.27417,280 132,280 C65.72583,280 12,226.27417 12,160 L12,160 L-3.19744231e-14,160 Z" id="circle_path-3" />
        <path d="M100,0 C130.927946,-5.68137151e-15 156,25.072054 156,56 L156.000809,62.1660527 C161.675838,63.1185422 166,68.05429 166,74 L166,88 C166,94.0524166 161.519235,99.0582945 155.693975,99.8813638 C153.627928,119.686472 141.237929,136.421678 124.001014,144.610469 L124,163 L128,163 C167.764502,163 200,195.235498 200,235 L200,244 L0,244 L0,235 C-4.86974701e-15,195.235498 32.235498,163 72,163 L76,163 L75.9999836,144.610943 C58.7625487,136.422324 46.3721119,119.686854 44.3051107,99.8809698 C38.480765,99.0582945 34,94.0524166 34,88 L34,74 C34,68.053942 38.3246685,63.1179645 44.0001873,62.1658855 L44,56 C44,25.072054 69.072054,5.68137151e-15 100,0 Z" id="circle_path-5" />
        <path d="M83,36.3476251 C83,52.6289957 105.161905,65.8276544 132.5,65.8276544 C159.838095,65.8276544 182,52.6289957 182,36.3476251 C182,34.9853134 181.844841,33.6445843 181.544472,32.3313638 C210.784239,41.4879251 232,68.792221 232,101.051724 L232,110 L32,110 L32,101.051724 C32,68.3970853 53.7386736,40.8197864 83.5337207,32.0021267 C83.1821692,33.4207025 83,34.871494 83,36.3476251 Z" id="circle_path-7" />
        <rect id="circle_path-9" x="0" y="0" width="264" height="280" />
        <path d="M74,0 C114.869071,0 148,33.1309285 148,74 L148,84.1482318 L148,197.608051 C135.525121,187.236892 119.490913,181 102,181 L102,181 L98,181 L98,162.610951 C115.530782,154.282984 128.048193,137.114792 129.791419,116.867187 C135.569129,116.002364 140,111.018625 140,105 L140,105 L140,92 C140,87.3536213 137.359271,83.3240177 133.496777,81.3301515 C132.723933,81.0500337 131.951808,80.748163 131.180891,80.4262497 C130.794819,80.3202581 130.400778,80.2331546 130,80.1659169 L130,80.1659169 L130.000458,79.9172528 C117.224481,74.2339715 104.877985,63.0706967 96.1104311,47.8848473 C93.1752556,42.8009742 90.8310687,37.5951441 89.0661426,32.3970356 C80.4313947,42.9409152 67.7445474,53.6023901 52.3415164,62.4953343 C42.777598,68.0170651 33.1467898,72.2910056 24,75.2659587 L24.0003852,137.246608 C29.6019576,148.318362 38.7728825,157.277529 50,162.610951 L50,162.610951 L50,181 L46,181 C38.3273639,181 30.9350359,182.200142 24.0004995,184.422941 L24,230 C24,244.105888 13.5691766,255.775526 0,257.716445 L0,74 C0,33.1309285 33.1309285,0 74,0 Z" id="circle_path-11" />
    </defs>
    <g id="circle_Avataaar/Circle" stroke="none" stroke-width="1" fill="none" fill-rule="evenodd">
        <g id="circle_Circle" transform="translate(12.000000, 40.000000)">
            <mask id="circle_mask-2" fill="white">
                <use xlink:href="#circle_path-1" />
            </mask>
            <use id="circle_Background-Color" fill="#F4F9F9" xlink:href="#circle_path-1" />
            <g id="circle_Fabric-Color" mask="url(#circle_mask-2)" fill="">
                <rect id="circle_ðŸ–Color" x="0" y="0" width="240" height="240" />
            </g>
        </g>
        <mask id="circle_mask-4" fill="white">
            <use xlink:href="#circle_path-3" />
        </mask>
        <g id="circle_Mask" />
        <g id="circle_Avataaar" mask="url(#circle_mask-4)">
            <g id="circle_Body" transform="translate(32.000000, 36.000000)">
                <mask id="circle_mask-6" fill="white">
                    <use xlink:href="#circle_path-5" />
                </mask>
                <use fill="#D0C6AC" xlink:href="#circle_path-5" />
                <g id="circle_Skin-Color" mask="url(#circle_mask-6)" fill="#FBD9BF">
                    <g transform="translate(-32.000000, 0.000000)" id="circle_Color">
                        <rect x="0" y="0" width="264" height="244" />
                    </g>
                </g>
                <path d="M44,94 C44,124.927946 69.072054,150 100,150 C130.927946,150 156,124.927946 156,94 L156,94 L156,102 C156,132.927946 130.927946,158 100,158 C69.072054,158 44,132.927946 44,102 Z" id="circle_Neck-Shadow" fill-opacity="0.100000001" fill="#000000" mask="url(#circle_mask-6)" />
            </g>
            <g id="circle_Clothing" transform="translate(0.000000, 170.000000)">
                
            <defs>
        <path d="M83,36.3476251 C83,52.6289957 105.161905,65.8276544 132.5,65.8276544 C159.838095,65.8276544 182,52.6289957 182,36.3476251 C182,34.9853134 181.844841,33.6445843 181.544472,32.3313638 C210.784239,41.4879251 232,68.792221 232,101.051724 L232,110 L32,110 L32,101.051724 C32,68.3970853 53.7386736,40.8197864 83.5337207,32.0021267 C83.1821692,33.4207025 83,34.871494 83,36.3476251 Z" id="shirt_scoop_neck_path-1" />
    </defs>
    <g id="shirt_scoop_neck_Clothing/Shirt-Scoop-Neck" stroke="none" stroke-width="1" fill="none" fill-rule="evenodd">
        <mask id="shirt_scoop_neck_mask-2" fill="white">
            <use xlink:href="#shirt_scoop_neck_path-1" />
        </mask>
        <use id="shirt_scoop_neck_Clothes" fill="#E6E6E6" xlink:href="#shirt_scoop_neck_path-1" />
        <g id="shirt_scoop_neck_Fabric-Color" mask="url(#shirt_scoop_neck_mask-2)" fill="#DD4A48">
            <rect id="shirt_scoop_neck_ðŸ–Color" x="0" y="0" width="264" height="110" />
        </g>
    </g>
</g>
            <g id="circle_Face" transform="translate(76.000000, 82.000000)" fill="#000000">
                <g id="circle_Mouth" transform="translate(2.000000, 52.000000)">    
                    
                <defs>
        <path d="M35.117844,15.1280772 C36.1757121,24.6198025 44.2259873,32 54,32 C63.8042055,32 71.8740075,24.574136 72.8917593,15.0400546 C72.9736685,14.272746 72.1167429,13 71.042767,13 C56.1487536,13 44.7379213,13 37.0868244,13 C36.0066168,13 35.0120058,14.1784435 35.117844,15.1280772 Z" id="smile_path-1" />
    </defs>
    <g id="smile_Mouth/Smile" stroke="none" stroke-width="1" fill="none" fill-rule="evenodd">
        <mask id="smile_mask-2" fill="white">
            <use xlink:href="#smile_path-1" />
        </mask>
        <use id="smile_Mouth" fill-opacity="0.699999988" fill="#000000" xlink:href="#smile_path-1" />
        <path d="M44,2 L65,2 C67.7614237,2 70,4.23857625 70,7 L70,13 C70,15.7614237 67.7614237,18 65,18 L44,18 C41.2385763,18 39,15.7614237 39,13 L39,7 C39,4.23857625 41.2385763,2 44,2 Z" id="smile_Teeth" fill="#FFFFFF" mask="url(#smile_mask-2)" />
        <g id="smile_Tongue" mask="url(#smile_mask-2)" fill="#FF4F6D">
            <g transform="translate(38.000000, 24.000000)">
                <circle cx="11" cy="11" r="11" />
                <circle cx="21" cy="11" r="11" />
            </g>
        </g>
    </g>
</g>
                <g id="circle_Nose" transform="translate(28.000000, 40.000000)" fill-opacity="0.16">
                    
                <g id="default_Nose/Default" stroke="none" stroke-width="1" fill="none" fill-rule="evenodd" fill-opacity="0.16">
        <path d="M16,8 C16,12.418278 21.372583,16 28,16 L28,16 C34.627417,16 40,12.418278 40,8" id="default_Nose" fill="#000000" />
    </g>
</g>
                <g id="circle_Eyes" transform="translate(0.000000, 8.000000)">
                    
                <g id="default_Eyes/Default-ðŸ˜€" stroke="none" stroke-width="1" fill="none" fill-rule="evenodd" fill-opacity="0.599999964">
        <circle id="default_Eye" fill="#000000" cx="30" cy="22" r="6" />
        <circle id="default_Eye" fill="#000000" cx="82" cy="22" r="6" />
    </g>
</g>
                <g id="circle_Eyebrow" fill-opacity="0.599999964">
                    
                <g id="default_natural_Eyebrow/Natural/Default-Natural" stroke="none" stroke-width="1" fill="none" fill-rule="evenodd" fill-opacity="0.599999964">
        <path d="M26.0390934,6.21012364 C20.2775554,6.98346216 11.2929313,12.0052479 12.04426,17.8178111 C12.0689481,18.0080543 12.3567302,18.0673468 12.4809077,17.9084937 C14.9674041,14.7203351 34.1927973,10.0365481 41.1942673,11.0147151 C41.8350523,11.1044465 42.2580662,10.4430343 41.8210501,10.0302067 C38.0765663,6.49485426 31.2003792,5.51224825 26.0390934,6.21012364" id="default_natural_Eyebrow" fill="#000000" transform="translate(27.000000, 12.000000) rotate(5.000000) translate(-27.000000, -12.000000) " />
        <path d="M85.0390934,6.21012364 C79.2775554,6.98346216 70.2929313,12.0052479 71.04426,17.8178111 C71.0689481,18.0080543 71.3567302,18.0673468 71.4809077,17.9084937 C73.9674041,14.7203351 93.1927973,10.0365481 100.194267,11.0147151 C100.835052,11.1044465 101.258066,10.4430343 100.82105,10.0302067 C97.0765663,6.49485426 90.2003792,5.51224825 85.0390934,6.21012364" id="default_natural_Eyebrow" fill="#000000" transform="translate(86.000000, 12.000000) scale(-1, 1) rotate(5.000000) translate(-86.000000, -12.000000) " />
    </g>
</g>
            </g>
            <g id="circle_Top">
                
            <g id="bride_Hairstyle/Bride" stroke="none" stroke-width="1" fill="none" fill-rule="evenodd">
        <g id="bride_Facial-Hair" transform="translate(49.000000, 72.000000)" />
        <g id="bride_Accessory" transform="translate(62.000000, 85.000000)" />
        <g id="bride_Group-6" transform="translate(69.000000, -55.000000)">
            <path d="M117.8748,169.5479 C118.7828,164.0989 128.5908,155.7439 128.5908,143.3939 C128.5908,138.5909 126.4058,107.1459 99.6728,92.0579 C99.7838,91.2529 99.8448,90.4379 99.8448,89.6119 C99.8448,86.7789 99.1598,84.0599 97.9158,81.5219 C114.7568,73.6399 125.8518,60.2059 125.8518,44.9529 C125.8518,20.6779 97.7598,0.9999 63.1068,0.9999 C28.4548,0.9999 0.3628,20.6779 0.3628,44.9529 C0.3628,60.7919 12.3268,74.6689 30.2638,82.4039 C29.2808,84.6869 28.7458,87.1059 28.7458,89.6119 C28.7458,90.5299 28.8218,91.4349 28.9598,92.3259 C3.6398,106.6659 1.0898,135.5739 1.0898,146.8449 C1.0898,162.1009 20.5238,181.3539 20.5238,191.3429 C20.5238,201.3319 -0.0002,208.0529 -0.0002,218.2239 C-0.0002,228.3949 13.2588,235.4779 15.2568,240.1999 C17.2548,244.9219 12.7138,250.1779 12.7138,256.0019 C12.7138,263.4479 24.1558,265.4459 24.1558,265.4459 C11.6238,256.3649 24.5198,244.5599 24.5198,238.5659 C24.5198,232.5719 11.9868,231.6639 11.9868,220.4029 C11.9868,209.1429 32.3298,206.0549 32.3298,192.6139 C32.3298,179.1739 19.2518,161.9079 19.2518,151.7369 C19.2518,141.5659 21.6138,123.9599 37.4148,123.9599 C53.2158,123.9599 51.5818,134.4939 65.2638,134.4939 C78.9448,134.4939 87.3618,126.1399 97.3518,126.1399 C107.3408,126.1399 113.8788,135.5839 113.8788,144.1199 C113.8788,152.6569 104.0708,159.0139 104.0708,171.0009 C104.0708,182.9879 115.4168,189.7079 115.4168,198.4259 C115.4168,207.1449 98.9858,213.8639 98.9858,223.4899 C98.9858,233.1169 106.7958,234.5689 113.5158,240.7449 C120.2358,246.9199 107.1588,254.0039 104.7978,259.8159 C102.4368,265.6279 108.0668,268.8969 108.0668,268.8969 C103.3448,259.2709 122.9608,254.0039 122.9608,245.6489 C122.9608,233.4809 111.0308,229.2409 111.0308,223.4289 C111.0308,214.0459 126.4108,209.1429 126.4108,195.1569 C126.4108,188.0739 116.9668,174.9969 117.8748,169.5479" id="bride_Hair-Color" fill="#3F4E4F" ns2:color="Hair-500" />
            <path d="M65.2634,84.0025 C79.8114,84.0025 91.0234,87.1765 99.6724,92.0575 C99.7844,91.2525 99.8444,90.4375 99.8444,89.6125 C99.8444,75.8585 83.9284,64.7095 64.2954,64.7095 C44.6614,64.7095 28.7454,75.8585 28.7454,89.6125 C28.7454,90.5295 28.8224,91.4345 28.9594,92.3265 C37.9154,87.2545 49.7144,84.0025 65.2634,84.0025" id="bride_Fill-4" fill-opacity=".8" fill="#FFF" />
        </g>
    </g>
</g>
        </g>
    </g>
</svg>